<?xml version="1.0" encoding="UTF-8"?>
<svg xmlns="http://www.w3.org/2000/svg" version="1.1" viewBox="200 300 512 512" fill="currentColor">
    <defs>
        <style>
            .cls-1 {
            fill: none;
            }
            .cls-2 {
            fill: #101010;
            }
        </style>
    </defs>
    <path d="M500.9,712.7c-7.2-2.2-12.5-2.9-12.3-12.1l-.4-9c-.9-19.1.4-38.4,4.4-57.1l2.2-10.5c5.5-26.1,11.9-35.8,6.1-79.4-21.1-7.7-33.8-16.7-48.5-31.4l-12.7,7.9c-6.4,4-12.5,8.6-19.7,10.5l-19.5,5.3-108-1.1c-20.5-9.3-32.6-56.3-13.9-79.3,13.8-16.9,34.2-14.1,57.3-8.6-18.7-17.3-44.4-21.3-67.2-13.9-26.5,8.5-34.2,29.2-36.3,40.6-1.5,7.2-4.2,23.9,2.9,43.1,7.5,20.1,21.3,31.2,34.4,36.9-15.6,22.2-11,44.6-5.3,67.7,1.7,7.2,9.2,17.6,3.1,31.9l-3.1,7.2c-6.8,11.6-8.6,31.6-5.2,44.8l2.2,8.5c2.9,11.4,8.8,25,22.2,25s13.8-2.4,11.6-9.4l-7-21.5c-2.9-8.5,0-50,7-47.8l-.2,23.1c2.8,16.5,9.4,39.1,17.5,42.4l11.4,4.8c15.3,6.6,13.8-14,8.1-22.4l-7.2-14.7c-3.5-5-3.8-14.7-2.9-17.1l1.1-3.1,13.6-35.3,2.4-15.6c.9-5.7-1.1-14.5,6.3-15.6l16.5-2.2c23,12.3,43.5,18,73.1,25.7l3.7,9.6c-.7,17.8-3.1,25.7-4.2,38.4l-1.5,18.7c-2.4,12.9-6.4,31.2,21.1,30.3,9,1.3,18.4-9,10.1-16.2-11.9-6.1-9.6-13.8-7.9-22.2l9.6-44.1,2.2,45.6c.4,23.3-5.7,43.7,31.8,37.8,9-4.4,5.7-13.6,1.1-16Z"/>
    <path d="M551,488.7l-5.4-15c-6.1-6.6-16.1-7.3-22.2-11.5,0,0,0-26.6-5-28.8-5.3-2.2-16.5,14.1-16.5,14.1l-2,4.6-9.6,14-28.8,36c12.5,13.4,28.1,23.5,47.2,31.8l9.4-7.5,4.6-3.1h2.2l6.6,3.5c14.7,7.9,35.6,6.6,42.6-10.3l1.5-3.7c2.4-5.9-19.5-18.9-24.6-24.1Z"/>
    <path d="M644.4,723.3c-7.2-2.2-12.5-2.9-12.3-12.1l-.4-9c-.9-19.1.4-38.4,4.4-57.1l2.2-10.5c5.5-26.1,11.9-35.8,6.1-79.4-21.1-7.7-33.8-16.7-48.5-31.4l-12.7,7.9c-6.4,4-12.5,8.6-19.7,10.5l-19.5,5.3-35.2-.3c4.7,37,.7,49.3-4.1,68.7h.6c23,12.2,43.5,17.9,73.1,25.6l3.7,9.6c-.7,17.8-3.1,25.7-4.2,38.4l-1.5,18.7c-2.4,12.9-6.4,31.2,21.1,30.3,9,1.3,18.4-9,10.1-16.2-11.9-6.1-9.6-13.8-7.9-22.2l9.6-44.1,2.2,45.6c.4,23.3-5.7,43.7,31.8,37.8,9-4.4,5.7-13.6,1.1-16Z"/>
    <path d="M693.4,502.9l-5.4-15c-6.1-6.6-16.1-7.3-22.2-11.5,0,0,0-26.6-5-28.8-5.3-2.2-16.5,14.1-16.5,14.1l-2,4.6-9.6,14-28.8,36c12.5,13.4,28.1,23.5,47.2,31.8l9.4-7.5,4.6-3.1h2.2l6.6,3.5c14.7,7.9,35.6,6.6,42.6-10.3l1.5-3.7c2.4-5.9-19.5-18.9-24.6-24.1Z"/>
</svg>